<?xml version="1.0" encoding="iso-8859-1"?>
<!-- Generator: Adobe Illustrator 18.0.0, SVG Export Plug-In . SVG Version: 6.00 Build 0)  -->
<!DOCTYPE svg PUBLIC "-//W3C//DTD SVG 1.1//EN" "http://www.w3.org/Graphics/SVG/1.1/DTD/svg11.dtd">
<svg version="1.1" id="Capa_1" xmlns="http://www.w3.org/2000/svg" xmlns:xlink="http://www.w3.org/1999/xlink" x="0px" y="0px"
	 viewBox="0 0 380 380" style="enable-background:new 0 0 380 380;" xml:space="preserve">
<g>
	<path d="M190,0C85.233,0,0,85.233,0,190s85.233,190,190,190s190-85.233,190-190S294.767,0,190,0z M190,340
		c-82.71,0-150-67.29-150-150S107.29,40,190,40s150,67.29,150,150S272.71,340,190,340z"/>
	<path d="M291.993,184.132h-74.197c-2.696-4.393-6.403-8.1-10.796-10.796V84.139c0-9.389-7.611-17-17-17c-9.389,0-17,7.611-17,17
		v89.197c-9.345,5.737-15.593,16.05-15.593,27.796c0,17.972,14.622,32.593,32.593,32.593c11.746,0,22.059-6.248,27.796-15.593
		h74.197c9.389,0,17-7.611,17-17C308.993,191.743,301.382,184.132,291.993,184.132z"/>
</g>
<g>
</g>
<g>
</g>
<g>
</g>
<g>
</g>
<g>
</g>
<g>
</g>
<g>
</g>
<g>
</g>
<g>
</g>
<g>
</g>
<g>
</g>
<g>
</g>
<g>
</g>
<g>
</g>
<g>
</g>
</svg>
