<?xml version="1.0" encoding="UTF-8" standalone="no"?>
<!-- Generator: Adobe Illustrator 16.0.0, SVG Export Plug-In . SVG Version: 6.00 Build 0)  -->

<svg
   xmlns:dc="http://purl.org/dc/elements/1.1/"
   xmlns:cc="http://creativecommons.org/ns#"
   xmlns:rdf="http://www.w3.org/1999/02/22-rdf-syntax-ns#"
   xmlns:svg="http://www.w3.org/2000/svg"
   xmlns="http://www.w3.org/2000/svg"
   xmlns:sodipodi="http://sodipodi.sourceforge.net/DTD/sodipodi-0.dtd"
   xmlns:inkscape="http://www.inkscape.org/namespaces/inkscape"
   version="1.1"
   id="Capa_1"
   x="0px"
   y="0px"
   width="438.277px"
   height="438.277px"
   viewBox="0 0 438.277 438.277"
   style="enable-background:new 0 0 438.277 438.277;"
   xml:space="preserve"
   sodipodi:docname="icon.svg"
   inkscape:version="0.92.2 5c3e80d, 2017-08-06"><metadata
     id="metadata84"><rdf:RDF><cc:Work
         rdf:about=""><dc:format>image/svg+xml</dc:format><dc:type
           rdf:resource="http://purl.org/dc/dcmitype/StillImage" /><dc:title /></cc:Work></rdf:RDF></metadata><defs
     id="defs82" /><sodipodi:namedview
     pagecolor="#ffffff"
     bordercolor="#666666"
     borderopacity="1"
     objecttolerance="10"
     gridtolerance="10"
     guidetolerance="10"
     inkscape:pageopacity="0"
     inkscape:pageshadow="2"
     inkscape:window-width="1920"
     inkscape:window-height="1015"
     id="namedview80"
     showgrid="false"
     inkscape:zoom="1.5230295"
     inkscape:cx="24.715588"
     inkscape:cy="196.71279"
     inkscape:window-x="0"
     inkscape:window-y="0"
     inkscape:window-maximized="1"
     inkscape:current-layer="Capa_1" /><g
     id="g47"
     transform="matrix(0.99687229,0,0,0.99687229,0.02881242,2.0446452e-6)"><path
       d="m 428.756,300.104 c -0.664,-3.81 -2.334,-7.047 -4.996,-9.713 -5.9,-5.903 -12.752,-7.142 -20.554,-3.716 -20.937,9.708 -42.641,14.558 -65.097,14.558 -28.171,0 -54.152,-6.94 -77.943,-20.838 -23.791,-13.894 -42.631,-32.736 -56.525,-56.53 -13.899,-23.793 -20.844,-49.773 -20.844,-77.945 0,-21.888 4.333,-42.683 12.991,-62.384 8.66,-19.7 21.176,-36.973 37.543,-51.82 6.283,-5.898 7.713,-12.752 4.287,-20.557 C 234.382,3.358 228.577,-0.352 220.203,0.027 191.082,1.168 163.483,7.691 137.406,19.583 111.33,31.478 88.917,47.13 70.168,66.548 c -18.747,19.414 -33.595,42.399 -44.54,68.95 -10.942,26.553 -16.416,54.39 -16.416,83.511 0,29.694 5.806,58.054 17.416,85.082 11.613,27.028 27.218,50.344 46.824,69.949 19.604,19.599 42.92,35.207 69.951,46.822 27.028,11.607 55.384,17.415 85.075,17.415 42.64,0 81.987,-11.563 118.054,-34.69 36.069,-23.124 63.05,-54.006 80.944,-92.645 1.524,-3.423 1.951,-7.036 1.28,-10.838 z m -122.191,84.064 c -24.646,11.711 -50.676,17.562 -78.087,17.562 -24.743,0 -48.39,-4.853 -70.947,-14.558 C 134.977,377.467 115.56,364.477 99.285,348.2 83.014,331.928 70.026,312.514 60.315,289.959 50.608,267.403 45.754,243.756 45.754,219.011 c 0,-40.922 12.135,-77.466 36.403,-109.636 24.266,-32.165 55.531,-53.959 93.788,-65.379 -19.795,31.405 -29.694,65.379 -29.694,101.926 0,34.644 8.564,66.715 25.697,96.223 17.128,29.499 40.446,52.811 69.95,69.948 29.499,17.129 61.565,25.694 96.211,25.694 10.656,0 21.129,-0.855 31.408,-2.57 -17.318,20.938 -38.307,37.255 -62.952,48.951 z"
       id="path45"
       inkscape:connector-curvature="0" /></g><g
     id="g49"
     transform="matrix(0.99687229,0,0,0.99687229,0.02881242,2.0446452e-6)" /><g
     id="g51"
     transform="matrix(0.99687229,0,0,0.99687229,0.02881242,2.0446452e-6)" /><g
     id="g53"
     transform="matrix(0.99687229,0,0,0.99687229,0.02881242,2.0446452e-6)" /><g
     id="g55"
     transform="matrix(0.99687229,0,0,0.99687229,0.02881242,2.0446452e-6)" /><g
     id="g57"
     transform="matrix(0.99687229,0,0,0.99687229,0.02881242,2.0446452e-6)" /><g
     id="g59"
     transform="matrix(0.99687229,0,0,0.99687229,0.02881242,2.0446452e-6)" /><g
     id="g61"
     transform="matrix(0.99687229,0,0,0.99687229,0.02881242,2.0446452e-6)" /><g
     id="g63"
     transform="matrix(0.99687229,0,0,0.99687229,0.02881242,2.0446452e-6)" /><g
     id="g65"
     transform="matrix(0.99687229,0,0,0.99687229,0.02881242,2.0446452e-6)" /><g
     id="g67"
     transform="matrix(0.99687229,0,0,0.99687229,0.02881242,2.0446452e-6)" /><g
     id="g69"
     transform="matrix(0.99687229,0,0,0.99687229,0.02881242,2.0446452e-6)" /><g
     id="g71"
     transform="matrix(0.99687229,0,0,0.99687229,0.02881242,2.0446452e-6)" /><g
     id="g73"
     transform="matrix(0.99687229,0,0,0.99687229,0.02881242,2.0446452e-6)" /><g
     id="g75"
     transform="matrix(0.99687229,0,0,0.99687229,0.02881242,2.0446452e-6)" /><g
     id="g77"
     transform="matrix(0.99687229,0,0,0.99687229,0.02881242,2.0446452e-6)" /><g
     id="g3860"
     transform="matrix(0.26323441,0,0,0.26323441,85.158491,247.68712)"><path
       inkscape:connector-curvature="0"
       d="M 190,0 C 85.233,0 0,85.233 0,190 0,294.767 85.233,380 190,380 294.767,380 380,294.767 380,190 380,85.233 294.767,0 190,0 Z m 0,340 C 107.29,340 40,272.71 40,190 40,107.29 107.29,40 190,40 c 82.71,0 150,67.29 150,150 0,82.71 -67.29,150 -150,150 z"
       id="path3856" /><path
       inkscape:connector-curvature="0"
       d="M 291.993,184.132 H 217.796 C 215.1,179.739 211.393,176.032 207,173.336 V 84.139 c 0,-9.389 -7.611,-17 -17,-17 -9.389,0 -17,7.611 -17,17 v 89.197 c -9.345,5.737 -15.593,16.05 -15.593,27.796 0,17.972 14.622,32.593 32.593,32.593 11.746,0 22.059,-6.248 27.796,-15.593 h 74.197 c 9.389,0 17,-7.611 17,-17 0,-9.389 -7.611,-17 -17,-17 z"
       id="path3858" /></g><g
     id="g3862"
     transform="matrix(0.26323441,0,0,0.26323441,85.158491,247.68712)" /><g
     id="g3864"
     transform="matrix(0.26323441,0,0,0.26323441,85.158491,247.68712)" /><g
     id="g3866"
     transform="matrix(0.26323441,0,0,0.26323441,85.158491,247.68712)" /><g
     id="g3868"
     transform="matrix(0.26323441,0,0,0.26323441,85.158491,247.68712)" /><g
     id="g3870"
     transform="matrix(0.26323441,0,0,0.26323441,85.158491,247.68712)" /><g
     id="g3872"
     transform="matrix(0.26323441,0,0,0.26323441,85.158491,247.68712)" /><g
     id="g3874"
     transform="matrix(0.26323441,0,0,0.26323441,85.158491,247.68712)" /><g
     id="g3876"
     transform="matrix(0.26323441,0,0,0.26323441,85.158491,247.68712)" /><g
     id="g3878"
     transform="matrix(0.26323441,0,0,0.26323441,85.158491,247.68712)" /><g
     id="g3880"
     transform="matrix(0.26323441,0,0,0.26323441,85.158491,247.68712)" /><g
     id="g3882"
     transform="matrix(0.26323441,0,0,0.26323441,85.158491,247.68712)" /><g
     id="g3884"
     transform="matrix(0.26323441,0,0,0.26323441,85.158491,247.68712)" /><g
     id="g3886"
     transform="matrix(0.26323441,0,0,0.26323441,85.158491,247.68712)" /><g
     id="g3888"
     transform="matrix(0.26323441,0,0,0.26323441,85.158491,247.68712)" /><g
     id="g3890"
     transform="matrix(0.26323441,0,0,0.26323441,85.158491,247.68712)" /></svg>